:SAMPLES-PER-SECOND 30
:FULLY-SPECIFIED
:DEGREES
290
root  -67.924 35.7821 5.47426 167.494 75.7759 169.918
RightUpLeg  -21.8111 15.4322 -12.7926
RightLeg  52.536 5.64093 7.49054
RightFoot  -28.9555 0.345924 3.49795
RightToes  7.56698e-010 0 -3.6325e-017
Spine  41.9028 1.29142 -37.08
Spine1  -17.0597 -14.0465 49.8637
HEad  -55.2892 44.4201 -53.4598
LeftShoulder1  -6.09389 17.6329 -36.442
LeftArm  -48.6389 -78.5742 -1.6499
LeftForeArm  -24.3262 -62.8486 -25.0016
LeftHand  -1.18844 12.0571 -18.5201
RightShoulder  -7.35061 -15.806 51.389
RightArm  -90.5438 81.796 -51.233
RightForeArm  -7.04314 75.2364 56.2749
RightHand  -0.871484 7.46463 -8.20876
LeftUpLeg  -30.7481 10.6211 13.9702
LeftLeg  31.8809 -3.90086 -2.27122
LeftFoot  -6.76051 0.543759 -11.6538
LeftToes  -2.88401e-009 5.30678e-011 -1.08654e-010
291
root  -67.969 35.0562 4.2325 165.111 78.9872 167.318
RightUpLeg  -24.2808 17.9554 -15.3641
RightLeg  55.605 6.10726 9.10769
RightFoot  -31.0491 0.632645 4.85513
RightToes  7.56698e-010 0 -3.6325e-017
Spine  42.4463 1.70309 -36.7153
Spine1  -16.893 -13.9035 50.7568
HEad  -56.6968 44.0217 -54.2782
LeftShoulder1  -6.34224 18.3633 -35.9698
LeftArm  -48.3234 -77.9434 -3.19666
LeftForeArm  -23.7788 -63.4297 -25.6585
LeftHand  -0.97166 11.2194 -17.2312
RightShoulder  -6.64198 -14.4674 52.1078
RightArm  -93.7209 81.4138 -55.5966
RightForeArm  -8.86708 75.2117 56.3453
RightHand  -1.05626 8.74941 -8.99888
LeftUpLeg  -33.3304 10.265 13.8694
LeftLeg  37.9782 -3.88183 -2.85348
LeftFoot  -3.65843 1.08712 -15.8891
LeftToes  -2.88401e-009 5.30678e-011 -1.08654e-010
292
root  -68.0161 34.4026 3.08145 159.245 80.8781 161.052
RightUpLeg  -26.4031 19.7898 -18.6291
RightLeg  57.8741 6.38922 10.4105
RightFoot  -33.0965 0.947315 6.10325
RightToes  7.56698e-010 0 -3.6325e-017
Spine  42.5454 2.38469 -37.0433
Spine1  -15.5397 -14.2205 51.6223
HEad  -57.6392 44.0222 -53.8474
LeftShoulder1  -6.3156 18.3363 -35.8772
LeftArm  -52.9361 -78.5175 0.354873
LeftForeArm  -23.0536 -63.2139 -25.3456
LeftHand  -0.982017 10.8949 -18.423
RightShoulder  -5.97893 -13.2681 52.7709
RightArm  -96.3321 80.0316 -58.8827
RightForeArm  -9.90943 75.2369 56.6439
RightHand  -1.39795 11.9625 -9.72487
LeftUpLeg  -36.7814 11.3169 11.9911
LeftLeg  45.2908 -2.94662 -2.77284
LeftFoot  -6.22389 0.618597 -13.0187
LeftToes  -2.88401e-009 5.30678e-011 -1.08654e-010
293
root  -68.053 33.9033 2.04338 145.677 83.0657 147.428
RightUpLeg  -28.1837 22.4131 -21.9331
RightLeg  59.1198 6.5915 11.2987
RightFoot  -34.487 1.26003 7.29648
RightToes  7.56698e-010 0 -3.6325e-017
Spine  42.0224 3.30075 -37.9828
Spine1  -13.1084 -14.6281 50.6183
HEad  -58.8587 43.3405 -53.8808
LeftShoulder1  -6.36048 18.5886 -35.4621
LeftArm  -56.8988 -78.8112 3.18587
LeftForeArm  -23.0127 -63.2135 -25.3457
LeftHand  -0.977297 10.8965 -18.3213
RightShoulder  -4.65185 -10.8973 54.0975
RightArm  -96.9254 77.8281 -60.9206
RightForeArm  -8.03335 75.3894 57.4775
RightHand  -1.05757 9.95954 -8.34428
LeftUpLeg  -38.4952 13.3454 10.0315
LeftLeg  50.2557 -2.20618 -2.38731
LeftFoot  -7.8218 0.386045 -10.9513
LeftToes  -2.88401e-009 5.30678e-011 -1.08654e-010
294
root  -68.0953 33.4397 1.03884 130.079 84.6482 131.563
RightUpLeg  -29.9955 24.4547 -24.8892
RightLeg  59.8588 6.74118 11.9116
RightFoot  -35.6224 1.53856 8.27564
RightToes  7.56698e-010 0 -3.6325e-017
Spine  43.0229 3.96205 -37.9578
Spine1  -13.7202 -13.8854 49.7821
HEad  -59.3355 43.4809 -53.9891
LeftShoulder1  -6.30798 18.3502 -35.7919
LeftArm  -54.3851 -77.8853 0.767011
LeftForeArm  -22.2749 -63.8812 -26.1189
LeftHand  -1.04889 11.2595 -18.5101
RightShoulder  -5.03245 -11.5646 53.7248
RightArm  -94.1521 78.9925 -57.714
RightForeArm  -6.20328 75.5179 58.1755
RightHand  -0.765944 7.34713 -7.33915
LeftUpLeg  -40.4793 14.7545 8.35686
LeftLeg  54.7937 -1.41871 -1.64606
LeftFoot  -10.1737 0.152793 -9.20638
LeftToes  -2.88401e-009 5.30678e-011 -1.08654e-010
295
root  -68.0669 33.1293 0.0516552 121.597 85.0438 122.629
RightUpLeg  -30.7822 24.7756 -27.2823
RightLeg  59.7476 6.90007 12.1385
RightFoot  -36.1989 1.67029 8.69148
RightToes  7.56698e-010 0 -3.6325e-017
Spine  43.4337 4.06857 -37.3692
Spine1  -13.0088 -14.0678 49.3623
HEad  -58.2607 42.0819 -52.5604
LeftShoulder1  -6.08061 17.4761 -36.8192
LeftArm  -56.0259 -78.3308 3.39393
LeftForeArm  -22.8613 -63.83 -26.1018
LeftHand  -1.02499 11.4091 -17.6219
RightShoulder  -4.81078 -11.1795 53.9411
RightArm  -92.8941 78.0104 -56.856
RightForeArm  -6.84402 75.5328 58.3762
RightHand  -0.853905 7.59915 -7.98136
LeftUpLeg  -42.3239 14.1905 6.6928
LeftLeg  58.0174 -0.492147 -0.296613
LeftFoot  -12.2889 0.00483326 -8.32309
LeftToes  -2.88401e-009 5.30678e-011 -1.08654e-010
